<?xml version="1.0" encoding="utf-8" standalone="no"?>
<!DOCTYPE svg PUBLIC "-//W3C//DTD SVG 1.1//EN"
  "http://www.w3.org/Graphics/SVG/1.1/DTD/svg11.dtd">
<svg xmlns:xlink="http://www.w3.org/1999/xlink" width="1080pt" height="720pt" viewBox="0 0 1080 720" xmlns="http://www.w3.org/2000/svg" version="1.1">
 <metadata>
  <rdf:RDF xmlns:dc="http://purl.org/dc/elements/1.1/" xmlns:cc="http://creativecommons.org/ns#" xmlns:rdf="http://www.w3.org/1999/02/22-rdf-syntax-ns#">
   <cc:Work>
    <dc:type rdf:resource="http://purl.org/dc/dcmitype/StillImage"/>
    <dc:date>2026-09-26T16:27:45.355269</dc:date>
    <dc:format>image/svg+xml</dc:format>
    <dc:creator>
     <cc:Agent>
      <dc:title>Matplotlib v3.7.0, https://matplotlib.org/</dc:title>
     </cc:Agent>
    </dc:creator>
   </cc:Work>
  </rdf:RDF>
 </metadata>
 <defs>
  <style type="text/css">*{stroke-linejoin: round; stroke-linecap: butt}</style>
 </defs>
 <g id="figure_1">
  <g id="patch_1">
   <path d="M 0 720 
L 1080 720 
L 1080 0 
L 0 0 
z
" style="fill: #f5f7fa"/>
  </g>
  <g id="axes_1">
   <g id="patch_2">
    <path d="M 224.979003 140.27726 
Q 234.190697 140.048666 242.284634 140.228777 
" clip-path="url(#p4e0c7ff332)" style="fill: none; opacity: 0.65; stroke: #71849b; stroke-linecap: round"/>
    <path d="M 237.539215 137.722585 
L 242.284634 140.228777 
L 237.43243 142.521397 
z
" clip-path="url(#p4e0c7ff332)" style="fill: #71849b; opacity: 0.65; stroke: #71849b; stroke-linecap: round"/>
   </g>
   <g id="patch_3">
    <path d="M 428.517465 166.496219 
Q 437.729159 166.724812 445.823096 166.544701 
" clip-path="url(#p4e0c7ff332)" style="fill: none; opacity: 0.65; stroke: #71849b; stroke-linecap: round"/>
    <path d="M 440.970891 164.252081 
L 445.823096 166.544701 
L 441.077677 169.050893 
z
" clip-path="url(#p4e0c7ff332)" style="fill: #71849b; opacity: 0.65; stroke: #71849b; stroke-linecap: round"/>
   </g>
   <g id="patch_4">
    <path d="M 428.496459 134.867721 
Q 539.504369 119.056353 649.405221 134.570877 
" clip-path="url(#p4e0c7ff332)" style="fill: none; opacity: 0.65; stroke: #71849b; stroke-linecap: round"/>
    <path d="M 644.987824 131.523484 
L 649.405221 134.570877 
L 644.316868 136.276358 
z
" clip-path="url(#p4e0c7ff332)" style="fill: #71849b; opacity: 0.65; stroke: #71849b; stroke-linecap: round"/>
   </g>
   <g id="patch_5">
    <path d="M 477.641828 190.447363 
Q 413.51223 234.56746 365.219606 294.871993 
" clip-path="url(#p4e0c7ff332)" style="fill: none; opacity: 0.65; stroke: #71849b; stroke-linecap: round"/>
    <path d="M 370.09334 292.625504 
L 365.219606 294.871993 
L 366.346655 289.625112 
z
" clip-path="url(#p4e0c7ff332)" style="fill: #71849b; opacity: 0.65; stroke: #71849b; stroke-linecap: round"/>
   </g>
   <g id="patch_6">
    <path d="M 881.750293 190.257864 
Q 668.563085 302.689749 430.612318 327.538354 
" clip-path="url(#p4e0c7ff332)" style="fill: none; opacity: 0.65; stroke: #71849b; stroke-linecap: round"/>
    <path d="M 435.635628 329.426833 
L 430.612318 327.538354 
L 435.137087 324.652793 
z
" clip-path="url(#p4e0c7ff332)" style="fill: #71849b; opacity: 0.65; stroke: #71849b; stroke-linecap: round"/>
   </g>
   <g id="patch_7">
    <path d="M 651.503541 315.50703 
Q 540.495631 299.695662 430.594779 315.210186 
" clip-path="url(#p4e0c7ff332)" style="fill: none; opacity: 0.65; stroke: #71849b; stroke-linecap: round"/>
    <path d="M 435.683132 316.915668 
L 430.594779 315.210186 
L 435.012176 312.162793 
z
" clip-path="url(#p4e0c7ff332)" style="fill: #71849b; opacity: 0.65; stroke: #71849b; stroke-linecap: round"/>
   </g>
   <g id="patch_8">
    <path d="M 651.482535 347.135528 
Q 642.270841 347.364122 634.176904 347.184011 
" clip-path="url(#p4e0c7ff332)" style="fill: none; opacity: 0.65; stroke: #71849b; stroke-linecap: round"/>
    <path d="M 638.922323 349.690203 
L 634.176904 347.184011 
L 639.029109 344.891391 
z
" clip-path="url(#p4e0c7ff332)" style="fill: #71849b; opacity: 0.65; stroke: #71849b; stroke-linecap: round"/>
   </g>
   <g id="patch_9">
    <path d="M 751.326414 296.116612 
Q 759.159202 244.199645 751.637569 193.388661 
" clip-path="url(#p4e0c7ff332)" style="fill: none; opacity: 0.65; stroke: #71849b; stroke-linecap: round"/>
    <path d="M 749.966333 198.488364 
L 751.637569 193.388661 
L 754.714589 197.785471 
z
" clip-path="url(#p4e0c7ff332)" style="fill: #71849b; opacity: 0.65; stroke: #71849b; stroke-linecap: round"/>
   </g>
   <g id="patch_10">
    <path d="M 770.972338 296.527019 
Q 819.864827 235.243701 882.974095 191.651335 
" clip-path="url(#p4e0c7ff332)" style="fill: none; opacity: 0.65; stroke: #71849b; stroke-linecap: round"/>
    <path d="M 877.660669 192.404662 
L 882.974095 191.651335 
L 880.388701 196.354072 
z
" clip-path="url(#p4e0c7ff332)" style="fill: #71849b; opacity: 0.65; stroke: #71849b; stroke-linecap: round"/>
   </g>
   <g id="patch_11">
    <path d="M 651.51516 313.705787 
Q 438.722778 275.055676 227.030595 313.328559 
" clip-path="url(#p4e0c7ff332)" style="fill: none; opacity: 0.65; stroke: #71849b; stroke-linecap: round"/>
    <path d="M 232.181004 314.8363 
L 227.030595 313.328559 
L 231.327033 310.112876 
z
" clip-path="url(#p4e0c7ff332)" style="fill: #71849b; opacity: 0.65; stroke: #71849b; stroke-linecap: round"/>
   </g>
   <g id="patch_12">
    <path d="M 693.591623 371.100855 
Q 571.562751 455.406598 430.495304 494.082777 
" clip-path="url(#p4e0c7ff332)" style="fill: none; opacity: 0.65; stroke: #71849b; stroke-linecap: round"/>
    <path d="M 435.759058 495.128192 
L 430.495304 494.082777 
L 434.489888 490.499022 
z
" clip-path="url(#p4e0c7ff332)" style="fill: #71849b; opacity: 0.65; stroke: #71849b; stroke-linecap: round"/>
   </g>
   <g id="patch_13">
    <path d="M 224.979003 347.135528 
Q 234.190697 347.364122 242.284634 347.184011 
" clip-path="url(#p4e0c7ff332)" style="fill: none; opacity: 0.65; stroke: #71849b; stroke-linecap: round"/>
    <path d="M 237.43243 344.891391 
L 242.284634 347.184011 
L 237.539215 349.690203 
z
" clip-path="url(#p4e0c7ff332)" style="fill: #71849b; opacity: 0.65; stroke: #71849b; stroke-linecap: round"/>
   </g>
   <g id="patch_14">
    <path d="M 224.957997 315.50703 
Q 335.965907 299.695662 445.866759 315.210186 
" clip-path="url(#p4e0c7ff332)" style="fill: none; opacity: 0.65; stroke: #71849b; stroke-linecap: round"/>
    <path d="M 441.449362 312.162793 
L 445.866759 315.210186 
L 440.778407 316.915668 
z
" clip-path="url(#p4e0c7ff332)" style="fill: #71849b; opacity: 0.65; stroke: #71849b; stroke-linecap: round"/>
   </g>
   <g id="patch_15">
    <path d="M 224.964375 327.75825 
Q 464.085559 302.975519 676.3409 191.243164 
" clip-path="url(#p4e0c7ff332)" style="fill: none; opacity: 0.65; stroke: #71849b; stroke-linecap: round"/>
    <path d="M 670.975509 191.35532 
L 676.3409 191.243164 
L 673.21139 195.60277 
z
" clip-path="url(#p4e0c7ff332)" style="fill: #71849b; opacity: 0.65; stroke: #71849b; stroke-linecap: round"/>
   </g>
   <g id="patch_16">
    <path d="M 209.317624 297.26894 
Q 516.927101 158.449332 852.902218 152.533586 
" clip-path="url(#p4e0c7ff332)" style="fill: none; opacity: 0.65; stroke: #71849b; stroke-linecap: round"/>
    <path d="M 848.06071 150.218461 
L 852.902218 152.533586 
L 848.145214 155.017718 
z
" clip-path="url(#p4e0c7ff332)" style="fill: #71849b; opacity: 0.65; stroke: #71849b; stroke-linecap: round"/>
   </g>
   <g id="patch_17">
    <path d="M 160.356954 371.525078 
Q 209.249442 432.808397 272.35871 476.400763 
" clip-path="url(#p4e0c7ff332)" style="fill: none; opacity: 0.65; stroke: #71849b; stroke-linecap: round"/>
    <path d="M 269.773316 471.698026 
L 272.35871 476.400763 
L 267.045284 475.647436 
z
" clip-path="url(#p4e0c7ff332)" style="fill: #71849b; opacity: 0.65; stroke: #71849b; stroke-linecap: round"/>
   </g>
   <g id="patch_18">
    <path d="M 632.055926 320.916569 
Q 641.26762 320.687976 649.361557 320.868087 
" clip-path="url(#p4e0c7ff332)" style="fill: none; opacity: 0.65; stroke: #71849b; stroke-linecap: round"/>
    <path d="M 644.616138 318.361895 
L 649.361557 320.868087 
L 644.509353 323.160707 
z
" clip-path="url(#p4e0c7ff332)" style="fill: #71849b; opacity: 0.65; stroke: #71849b; stroke-linecap: round"/>
   </g>
   <g id="patch_19">
    <path d="M 447.944074 320.916569 
Q 438.73238 320.687976 430.638443 320.868087 
" clip-path="url(#p4e0c7ff332)" style="fill: none; opacity: 0.65; stroke: #71849b; stroke-linecap: round"/>
    <path d="M 435.490647 323.160707 
L 430.638443 320.868087 
L 435.383862 318.361895 
z
" clip-path="url(#p4e0c7ff332)" style="fill: #71849b; opacity: 0.65; stroke: #71849b; stroke-linecap: round"/>
   </g>
   <g id="patch_20">
    <path d="M 589.946839 296.951243 
Q 711.975711 212.6455 853.043157 173.969321 
" clip-path="url(#p4e0c7ff332)" style="fill: none; opacity: 0.65; stroke: #71849b; stroke-linecap: round"/>
    <path d="M 847.779403 172.923906 
L 853.043157 173.969321 
L 849.048573 177.553075 
z
" clip-path="url(#p4e0c7ff332)" style="fill: #71849b; opacity: 0.65; stroke: #71849b; stroke-linecap: round"/>
   </g>
   <g id="patch_21">
    <path d="M 567.433877 371.525078 
Q 616.326365 432.808397 679.435633 476.400763 
" clip-path="url(#p4e0c7ff332)" style="fill: none; opacity: 0.65; stroke: #71849b; stroke-linecap: round"/>
    <path d="M 676.85024 471.698026 
L 679.435633 476.400763 
L 674.122207 475.647436 
z
" clip-path="url(#p4e0c7ff332)" style="fill: #71849b; opacity: 0.65; stroke: #71849b; stroke-linecap: round"/>
   </g>
   <g id="patch_22">
    <path d="M 490.053161 371.100855 
Q 368.024289 455.406598 226.956843 494.082777 
" clip-path="url(#p4e0c7ff332)" style="fill: none; opacity: 0.65; stroke: #71849b; stroke-linecap: round"/>
    <path d="M 232.220597 495.128192 
L 226.956843 494.082777 
L 230.951427 490.499022 
z
" clip-path="url(#p4e0c7ff332)" style="fill: #71849b; opacity: 0.65; stroke: #71849b; stroke-linecap: round"/>
   </g>
   <g id="patch_23">
    <path d="M 532.212047 371.935486 
Q 524.37926 423.852452 531.900893 474.663437 
" clip-path="url(#p4e0c7ff332)" style="fill: none; opacity: 0.65; stroke: #71849b; stroke-linecap: round"/>
    <path d="M 533.572129 469.563734 
L 531.900893 474.663437 
L 528.823872 470.266626 
z
" clip-path="url(#p4e0c7ff332)" style="fill: #71849b; opacity: 0.65; stroke: #71849b; stroke-linecap: round"/>
   </g>
   <g id="patch_24">
    <path d="M 898.815876 190.515899 
Q 594.722572 416.638204 227.002285 496.675235 
" clip-path="url(#p4e0c7ff332)" style="fill: none; opacity: 0.65; stroke: #71849b; stroke-linecap: round"/>
    <path d="M 232.202899 497.999475 
L 227.002285 496.675235 
L 231.182045 493.309287 
z
" clip-path="url(#p4e0c7ff332)" style="fill: #71849b; opacity: 0.65; stroke: #71849b; stroke-linecap: round"/>
   </g>
   <g id="patch_25">
    <path d="M 913.000807 190.83928 
Q 804.859492 317.002054 755.110197 474.806248 
" clip-path="url(#p4e0c7ff332)" style="fill: none; opacity: 0.65; stroke: #71849b; stroke-linecap: round"/>
    <path d="M 758.842368 470.949968 
L 755.110197 474.806248 
L 754.264476 469.506743 
z
" clip-path="url(#p4e0c7ff332)" style="fill: #71849b; opacity: 0.65; stroke: #71849b; stroke-linecap: round"/>
   </g>
   <g id="patch_26">
    <path d="M 835.594388 140.27726 
Q 844.806082 140.048666 852.900019 140.228777 
" clip-path="url(#p4e0c7ff332)" style="fill: none; opacity: 0.65; stroke: #71849b; stroke-linecap: round"/>
    <path d="M 848.1546 137.722585 
L 852.900019 140.228777 
L 848.047814 142.521397 
z
" clip-path="url(#p4e0c7ff332)" style="fill: #71849b; opacity: 0.65; stroke: #71849b; stroke-linecap: round"/>
   </g>
   <g id="patch_27">
    <path d="M 855.142481 183.090824 
Q 585.884882 280.041326 376.425304 475.915672 
" clip-path="url(#p4e0c7ff332)" style="fill: none; opacity: 0.65; stroke: #71849b; stroke-linecap: round"/>
    <path d="M 381.570462 474.390109 
L 376.425304 475.915672 
L 378.291948 470.884207 
z
" clip-path="url(#p4e0c7ff332)" style="fill: #71849b; opacity: 0.65; stroke: #71849b; stroke-linecap: round"/>
   </g>
   <g id="patch_28">
    <path d="M 49.879385 188.819835 
L 215.966769 188.819835 
Q 222.48 188.819835 222.48 183.261702 
L 222.48 123.511776 
Q 222.48 117.953644 215.966769 117.953644 
L 49.879385 117.953644 
Q 43.366154 117.953644 43.366154 123.511776 
L 43.366154 183.261702 
Q 43.366154 188.819835 49.879385 188.819835 
z
" clip-path="url(#p4e0c7ff332)" style="fill: #dceafb; stroke: #71849b; stroke-linejoin: miter"/>
   </g>
   <g id="patch_29">
    <path d="M 253.417846 188.819835 
L 419.505231 188.819835 
Q 426.018462 188.819835 426.018462 183.261702 
L 426.018462 123.511776 
Q 426.018462 117.953644 419.505231 117.953644 
L 253.417846 117.953644 
Q 246.904615 117.953644 246.904615 123.511776 
L 246.904615 183.261702 
Q 246.904615 188.819835 253.417846 188.819835 
z
" clip-path="url(#p4e0c7ff332)" style="fill: #dceafb; stroke: #71849b; stroke-linejoin: miter"/>
   </g>
   <g id="patch_30">
    <path d="M 456.956308 188.819835 
L 623.043692 188.819835 
Q 629.556923 188.819835 629.556923 183.261702 
L 629.556923 123.511776 
Q 629.556923 117.953644 623.043692 117.953644 
L 456.956308 117.953644 
Q 450.443077 117.953644 450.443077 123.511776 
L 450.443077 183.261702 
Q 450.443077 188.819835 456.956308 188.819835 
z
" clip-path="url(#p4e0c7ff332)" style="fill: #dceafb; stroke: #71849b; stroke-linejoin: miter"/>
   </g>
   <g id="patch_31">
    <path d="M 864.033231 188.819835 
L 1030.120615 188.819835 
Q 1036.633846 188.819835 1036.633846 183.261702 
L 1036.633846 123.511776 
Q 1036.633846 117.953644 1030.120615 117.953644 
L 864.033231 117.953644 
Q 857.52 117.953644 857.52 123.511776 
L 857.52 183.261702 
Q 857.52 188.819835 864.033231 188.819835 
z
" clip-path="url(#p4e0c7ff332)" style="fill: #dceafb; stroke: #71849b; stroke-linejoin: miter"/>
   </g>
   <g id="patch_32">
    <path d="M 253.417846 369.459144 
L 419.505231 369.459144 
Q 426.018462 369.459144 426.018462 363.901012 
L 426.018462 304.151086 
Q 426.018462 298.592954 419.505231 298.592954 
L 253.417846 298.592954 
Q 246.904615 298.592954 246.904615 304.151086 
L 246.904615 363.901012 
Q 246.904615 369.459144 253.417846 369.459144 
z
" clip-path="url(#p4e0c7ff332)" style="fill: #e1f0e4; stroke: #71849b; stroke-linejoin: miter"/>
   </g>
   <g id="patch_33">
    <path d="M 456.956308 369.459144 
L 623.043692 369.459144 
Q 629.556923 369.459144 629.556923 363.901012 
L 629.556923 304.151086 
Q 629.556923 298.592954 623.043692 298.592954 
L 456.956308 298.592954 
Q 450.443077 298.592954 450.443077 304.151086 
L 450.443077 363.901012 
Q 450.443077 369.459144 456.956308 369.459144 
z
" clip-path="url(#p4e0c7ff332)" style="fill: #e1f0e4; stroke: #71849b; stroke-linejoin: miter"/>
   </g>
   <g id="patch_34">
    <path d="M 660.494769 369.459144 
L 826.582154 369.459144 
Q 833.095385 369.459144 833.095385 363.901012 
L 833.095385 304.151086 
Q 833.095385 298.592954 826.582154 298.592954 
L 660.494769 298.592954 
Q 653.981538 298.592954 653.981538 304.151086 
L 653.981538 363.901012 
Q 653.981538 369.459144 660.494769 369.459144 
z
" clip-path="url(#p4e0c7ff332)" style="fill: #e1f0e4; stroke: #71849b; stroke-linejoin: miter"/>
   </g>
   <g id="patch_35">
    <path d="M 49.879385 550.098454 
L 215.966769 550.098454 
Q 222.48 550.098454 222.48 544.540321 
L 222.48 484.790396 
Q 222.48 479.232263 215.966769 479.232263 
L 49.879385 479.232263 
Q 43.366154 479.232263 43.366154 484.790396 
L 43.366154 544.540321 
Q 43.366154 550.098454 49.879385 550.098454 
z
" clip-path="url(#p4e0c7ff332)" style="fill: #e1f0e4; stroke: #71849b; stroke-linejoin: miter"/>
   </g>
   <g id="patch_36">
    <path d="M 660.494769 188.819835 
L 826.582154 188.819835 
Q 833.095385 188.819835 833.095385 183.261702 
L 833.095385 123.511776 
Q 833.095385 117.953644 826.582154 117.953644 
L 660.494769 117.953644 
Q 653.981538 117.953644 653.981538 123.511776 
L 653.981538 183.261702 
Q 653.981538 188.819835 660.494769 188.819835 
z
" clip-path="url(#p4e0c7ff332)" style="fill: #dceafb; stroke: #71849b; stroke-linejoin: miter"/>
   </g>
   <g id="patch_37">
    <path d="M 49.879385 369.459144 
L 215.966769 369.459144 
Q 222.48 369.459144 222.48 363.901012 
L 222.48 304.151086 
Q 222.48 298.592954 215.966769 298.592954 
L 49.879385 298.592954 
Q 43.366154 298.592954 43.366154 304.151086 
L 43.366154 363.901012 
Q 43.366154 369.459144 49.879385 369.459144 
z
" clip-path="url(#p4e0c7ff332)" style="fill: #e1f0e4; stroke: #71849b; stroke-linejoin: miter"/>
   </g>
   <g id="patch_38">
    <path d="M 253.417846 550.098454 
L 419.505231 550.098454 
Q 426.018462 550.098454 426.018462 544.540321 
L 426.018462 484.790396 
Q 426.018462 479.232263 419.505231 479.232263 
L 253.417846 479.232263 
Q 246.904615 479.232263 246.904615 484.790396 
L 246.904615 544.540321 
Q 246.904615 550.098454 253.417846 550.098454 
z
" clip-path="url(#p4e0c7ff332)" style="fill: #e1f0e4; stroke: #71849b; stroke-linejoin: miter"/>
   </g>
   <g id="patch_39">
    <path d="M 456.956308 550.098454 
L 623.043692 550.098454 
Q 629.556923 550.098454 629.556923 544.540321 
L 629.556923 484.790396 
Q 629.556923 479.232263 623.043692 479.232263 
L 456.956308 479.232263 
Q 450.443077 479.232263 450.443077 484.790396 
L 450.443077 544.540321 
Q 450.443077 550.098454 456.956308 550.098454 
z
" clip-path="url(#p4e0c7ff332)" style="fill: #e1f0e4; stroke: #71849b; stroke-linejoin: miter"/>
   </g>
   <g id="patch_40">
    <path d="M 660.494769 550.098454 
L 826.582154 550.098454 
Q 833.095385 550.098454 833.095385 544.540321 
L 833.095385 484.790396 
Q 833.095385 479.232263 826.582154 479.232263 
L 660.494769 479.232263 
Q 653.981538 479.232263 653.981538 484.790396 
L 653.981538 544.540321 
Q 653.981538 550.098454 660.494769 550.098454 
z
" clip-path="url(#p4e0c7ff332)" style="fill: #e1f0e4; stroke: #71849b; stroke-linejoin: miter"/>
   </g>
   <g id="text_1">
    <text style="fill: #24384d; font: 11px 'Microsoft YaHei', 'SimHei', 'DejaVu Sans', sans-serif" transform="translate(51.507692 650.309355)">保持夹持送入：抓取 → 移动 → 接触规划 → 插入 → 压靠 → 放置</text>
    <text style="fill: #24384d; font: 11px 'Microsoft YaHei', 'SimHei', 'DejaVu Sans', sans-serif" transform="translate(51.507692 663.595637)">释放后推入：放置 → 退出 → 检测 → 推动位置估计 → 规划 → 移动 → 空夹爪闭合 → 推动</text>
    <text style="fill: #24384d; font: 11px 'Microsoft YaHei', 'SimHei', 'DejaVu Sans', sans-serif" transform="translate(51.507692 676.881918)">两种方案由规划器选择；本次任务从滑块开始，到把手装好并释放后结束。</text>
   </g>
   <g id="text_2">
    <text style="font: 17px 'Microsoft YaHei', 'SimHei', 'DejaVu Sans', sans-serif" transform="translate(417.435313 25.481406)">TwinGraph · 13 个通用原子技能</text>
    <text style="font: 17px 'Microsoft YaHei', 'SimHei', 'DejaVu Sans', sans-serif" transform="translate(340.868906 46.01475)">条件依赖图；边表示部分输入/状态，不保证执行成功</text>
   </g>
   <g id="text_3">
    <text style="font: 10px 'Microsoft YaHei', 'SimHei', 'DejaVu Sans', sans-serif" transform="translate(122.923077 150.101427)">检测</text>
    <text style="font: 10px 'Microsoft YaHei', 'SimHei', 'DejaVu Sans', sans-serif" transform="translate(117.862921 162.179864)">detect</text>
   </g>
   <g id="text_4">
    <text style="font: 10px 'Microsoft YaHei', 'SimHei', 'DejaVu Sans', sans-serif" transform="translate(306.461538 150.067833)">物体位姿估计</text>
    <text style="font: 10px 'Microsoft YaHei', 'SimHei', 'DejaVu Sans', sans-serif" transform="translate(302.246695 162.14627)">estimate_pose</text>
   </g>
   <g id="text_5">
    <text style="font: 10px 'Microsoft YaHei', 'SimHei', 'DejaVu Sans', sans-serif" transform="translate(510 150.067833)">抓取位姿估计</text>
    <text style="font: 10px 'Microsoft YaHei', 'SimHei', 'DejaVu Sans', sans-serif" transform="translate(503.928906 162.14627)">estimate_grasp</text>
   </g>
   <g id="text_6">
    <text style="font: 10px 'Microsoft YaHei', 'SimHei', 'DejaVu Sans', sans-serif" transform="translate(927.076923 150.067833)">路径规划</text>
    <text style="font: 10px 'Microsoft YaHei', 'SimHei', 'DejaVu Sans', sans-serif" transform="translate(923.635517 162.14627)">plan_path</text>
   </g>
   <g id="text_7">
    <text style="font: 10px 'Microsoft YaHei', 'SimHei', 'DejaVu Sans', sans-serif" transform="translate(326.461538 330.740736)">移动</text>
    <text style="font: 10px 'Microsoft YaHei', 'SimHei', 'DejaVu Sans', sans-serif" transform="translate(323.167788 342.819174)">move</text>
   </g>
   <g id="text_8">
    <text style="font: 10px 'Microsoft YaHei', 'SimHei', 'DejaVu Sans', sans-serif" transform="translate(530 330.71183)">抓取</text>
    <text style="font: 10px 'Microsoft YaHei', 'SimHei', 'DejaVu Sans', sans-serif" transform="translate(526.619531 342.790268)">grasp</text>
   </g>
   <g id="text_9">
    <text style="font: 10px 'Microsoft YaHei', 'SimHei', 'DejaVu Sans', sans-serif" transform="translate(733.538462 330.740736)">放置</text>
    <text style="font: 10px 'Microsoft YaHei', 'SimHei', 'DejaVu Sans', sans-serif" transform="translate(730.90643 342.819174)">place</text>
   </g>
   <g id="text_10">
    <text style="font: 10px 'Microsoft YaHei', 'SimHei', 'DejaVu Sans', sans-serif" transform="translate(122.923077 511.380046)">插入</text>
    <text style="font: 10px 'Microsoft YaHei', 'SimHei', 'DejaVu Sans', sans-serif" transform="translate(119.431671 523.458484)">insert</text>
   </g>
   <g id="text_11">
    <text style="font: 10px 'Microsoft YaHei', 'SimHei', 'DejaVu Sans', sans-serif" transform="translate(713.538462 150.067833)">推动位置估计</text>
    <text style="font: 10px 'Microsoft YaHei', 'SimHei', 'DejaVu Sans', sans-serif" transform="translate(695.413462 162.14627)">estimate_push_pose</text>
   </g>
   <g id="text_12">
    <text style="font: 10px 'Microsoft YaHei', 'SimHei', 'DejaVu Sans', sans-serif" transform="translate(112.923077 330.71183)">夹爪开合</text>
    <text style="font: 10px 'Microsoft YaHei', 'SimHei', 'DejaVu Sans', sans-serif" transform="translate(115.351202 342.790268)">gripper</text>
   </g>
   <g id="text_13">
    <text style="font: 10px 'Microsoft YaHei', 'SimHei', 'DejaVu Sans', sans-serif" transform="translate(326.461538 511.380046)">推送</text>
    <text style="font: 10px 'Microsoft YaHei', 'SimHei', 'DejaVu Sans', sans-serif" transform="translate(324.792788 523.458484)">push</text>
   </g>
   <g id="text_14">
    <text style="font: 10px 'Microsoft YaHei', 'SimHei', 'DejaVu Sans', sans-serif" transform="translate(530 511.380046)">压靠</text>
    <text style="font: 10px 'Microsoft YaHei', 'SimHei', 'DejaVu Sans', sans-serif" transform="translate(527.499219 523.458484)">press</text>
   </g>
   <g id="text_15">
    <text style="font: 10px 'Microsoft YaHei', 'SimHei', 'DejaVu Sans', sans-serif" transform="translate(733.538462 511.380046)">擦拭</text>
    <text style="font: 10px 'Microsoft YaHei', 'SimHei', 'DejaVu Sans', sans-serif" transform="translate(732.229868 523.458484)">wipe</text>
   </g>
  </g>
 </g>
 <defs>
  <clipPath id="p4e0c7ff332">
   <rect x="10.8" y="70.01475" width="1058.4" height="639.18525"/>
  </clipPath>
 </defs>
</svg>
